<svg width="150" height="126" viewBox="0 0 150 126" fill="none" xmlns="http://www.w3.org/2000/svg">
<g id="Logo">
<g id="Logo_2">
<g id="Logo_Symbol" clip-path="url(#clip0_936_61948)">
<g id="Logo_3">
<g id="Logo_Element">
<path id="Union" fill-rule="evenodd" clip-rule="evenodd" d="M55.7756 21.1378C77.8981 7.17168 94.9988 16.3314 101.329 23.2722C101.329 23.2722 93.4024 24.6007 85.3942 29.9918C79.388 34.0351 73.9355 40.1223 70.315 45.9088C68.6949 48.4984 66.6362 51.1955 64.3182 53.7481C61.3809 57.3125 57.5575 60.6053 52.9989 63.2906C52.298 63.7035 51.5917 64.0938 50.8824 64.4634C49.2414 65.3322 47.7024 66.0082 46.3065 66.5343C33.2352 71.5922 19.9469 69.5675 14.6175 60.9536C8.37071 50.8562 15.427 35.5308 30.3772 26.7243C38.9349 21.6835 48.2243 19.8725 55.7756 21.1378ZM53.9312 22.3484C48.28 21.7295 41.1398 23.4003 34.4136 27.3623C23.377 33.8635 17.4168 44.1999 20.4407 51.1111C22.8759 54.6401 27.8243 53.8067 31.3334 49.995C33.4855 47.6574 36.1962 44.1469 39.3724 38.2882L39.3694 38.3204C42.2171 32.7391 46.8352 27.1933 53.9312 22.3484Z" fill="white"/>
</g>
<g id="Logo_Element_2">
<path id="Union_2" fill-rule="evenodd" clip-rule="evenodd" d="M94.2239 71.3932C72.1014 85.3593 55.0007 76.1996 48.6709 69.2589C48.6709 69.2589 56.5971 67.9303 64.6053 62.5392C70.6115 58.4959 76.064 52.4087 79.6845 46.6222C81.3046 44.0326 83.3634 41.3356 85.6813 38.7829C88.6187 35.2185 92.442 31.9257 97.0006 29.2404C97.7015 28.8275 98.4078 28.4372 99.1171 28.0676C100.758 27.1988 102.297 26.5228 103.693 25.9967C116.764 20.9388 130.053 22.9635 135.382 31.5774C141.629 41.6748 134.573 57.0002 119.622 65.8067C111.065 70.8475 101.775 72.6585 94.2239 71.3932ZM96.0683 70.1826C101.719 70.8015 108.86 69.1307 115.586 65.1687C126.623 58.6675 132.583 48.3311 129.559 41.4199C127.124 37.8909 122.175 38.7243 118.666 42.536C116.514 44.8736 113.803 48.3841 110.627 54.2428L110.63 54.2106C107.782 59.7919 103.164 65.3377 96.0683 70.1826Z" fill="white"/>
</g>
</g>
</g>
<g id="Logo_Symbol_2">
<g id="Outline">
<path id="Vector" d="M126.561 117.408C125.922 117.408 125.313 117.27 124.734 116.994C124.175 116.699 123.716 116.246 123.356 115.636C123.017 115.026 122.847 114.248 122.847 113.303C122.847 112.791 122.897 112.122 122.997 111.295C123.096 110.468 123.226 109.562 123.386 108.578C123.566 107.593 123.746 106.609 123.925 105.625C123.526 105.644 123.136 105.684 122.757 105.743C122.398 105.802 122.038 105.871 121.679 105.95L121.619 105.743C122.018 105.27 122.437 104.867 122.877 104.532C123.316 104.197 123.775 103.922 124.255 103.705C124.514 102.406 124.734 101.284 124.914 100.339C125.094 99.374 125.183 98.803 125.183 98.6258C125.183 98.2912 125.443 98.0155 125.962 97.799C126.501 97.5824 127.101 97.4741 127.76 97.4741C128.339 97.4741 128.878 97.5824 129.377 97.799C129.896 98.0155 130.246 98.3797 130.426 98.8916C130.306 99.0097 130.136 99.4527 129.916 100.221C129.697 100.969 129.467 101.884 129.227 102.967C129.607 102.987 129.996 103.006 130.396 103.026C130.795 103.046 131.204 103.075 131.624 103.115C131.664 103.233 131.694 103.361 131.714 103.498C131.734 103.636 131.744 103.784 131.744 103.941C131.744 104.237 131.694 104.562 131.594 104.916C131.514 105.251 131.414 105.556 131.294 105.831C130.815 105.792 130.366 105.753 129.946 105.713C129.527 105.654 129.118 105.615 128.718 105.595C128.558 106.442 128.409 107.288 128.269 108.135C128.149 108.981 128.049 109.749 127.969 110.438C127.909 111.127 127.879 111.669 127.879 112.063C127.879 112.889 128.029 113.441 128.329 113.716C128.648 113.992 129.028 114.13 129.467 114.13C129.866 114.13 130.226 114.051 130.545 113.893C130.865 113.736 131.095 113.549 131.234 113.332L131.534 113.421C131.414 114.228 131.095 114.937 130.575 115.547C130.056 116.138 129.437 116.601 128.718 116.935C127.999 117.25 127.28 117.408 126.561 117.408Z" fill="white"/>
<path id="Vector_2" d="M112.98 117.496C111.523 117.496 110.314 117.211 109.356 116.64C108.397 116.049 107.678 115.282 107.199 114.337C106.72 113.372 106.48 112.338 106.48 111.236C106.48 110.192 106.68 109.149 107.079 108.106C107.498 107.042 108.098 106.078 108.876 105.211C109.675 104.345 110.634 103.646 111.752 103.115C112.891 102.583 114.169 102.317 115.587 102.317C117.344 102.317 118.622 102.711 119.421 103.499C120.24 104.266 120.649 105.202 120.649 106.304C120.649 107.249 120.389 108.125 119.87 108.932C119.371 109.72 118.702 110.36 117.863 110.852C117.024 111.324 116.106 111.561 115.107 111.561C114.588 111.561 114.059 111.482 113.52 111.324C112.98 111.167 112.451 110.921 111.932 110.586C112.032 111.807 112.391 112.693 113.01 113.244C113.629 113.795 114.368 114.071 115.227 114.071C115.826 114.071 116.425 113.963 117.024 113.746C117.624 113.51 118.173 113.214 118.672 112.86C119.191 112.486 119.591 112.092 119.87 111.679L120.08 111.826C120.08 112.85 119.86 113.726 119.421 114.455C119.001 115.163 118.442 115.744 117.743 116.197C117.044 116.65 116.276 116.985 115.437 117.201C114.618 117.398 113.799 117.496 112.98 117.496ZM113.669 109.523C114.308 109.523 114.828 109.346 115.227 108.991C115.626 108.617 115.926 108.184 116.126 107.692C116.325 107.2 116.425 106.767 116.425 106.393C116.425 105.94 116.295 105.566 116.036 105.271C115.776 104.956 115.417 104.798 114.957 104.798C114.598 104.798 114.199 104.926 113.759 105.182C113.34 105.438 112.96 105.881 112.621 106.511C112.281 107.121 112.062 107.978 111.962 109.08C112.601 109.375 113.17 109.523 113.669 109.523Z" fill="white"/>
<path id="Vector_3" d="M92.4923 117.378C91.7533 117.378 91.0843 117.093 90.4852 116.522C89.8861 115.931 89.5866 115.114 89.5866 114.071C89.5866 113.559 89.6564 112.978 89.7962 112.328C89.936 111.679 90.0858 111.019 90.2456 110.35C90.4253 109.68 90.5851 109.05 90.7249 108.46C90.8647 107.869 90.9346 107.387 90.9346 107.013C90.9346 106.619 90.8547 106.314 90.6949 106.097C90.5351 105.861 90.3255 105.743 90.0658 105.743C89.7263 105.743 89.3569 105.94 88.9575 106.333L88.7777 106.215C88.7578 105.9 88.8277 105.526 88.9874 105.093C89.1472 104.66 89.3868 104.247 89.7064 103.853C90.0459 103.439 90.4752 103.095 90.9945 102.819C91.5137 102.544 92.1328 102.406 92.8517 102.406C93.9102 102.406 94.689 102.711 95.1883 103.321C95.7075 103.912 95.9671 104.64 95.9671 105.507C95.9671 105.822 95.9372 106.127 95.8773 106.422C96.2966 105.812 96.8159 105.201 97.435 104.591C98.054 103.961 98.733 103.439 99.4719 103.026C100.231 102.612 101.01 102.406 101.808 102.406C102.747 102.406 103.386 102.701 103.726 103.292C104.065 103.882 104.235 104.621 104.235 105.507C104.235 106.333 104.145 107.219 103.965 108.164C103.786 109.109 103.606 110.025 103.426 110.911C103.246 111.777 103.156 112.505 103.156 113.096C103.156 113.884 103.386 114.277 103.845 114.277C104.085 114.277 104.295 114.208 104.475 114.071C104.654 113.913 104.774 113.765 104.834 113.628L105.044 113.716C105.044 114.445 104.834 115.085 104.415 115.636C104.015 116.187 103.506 116.62 102.887 116.935C102.268 117.23 101.639 117.378 101 117.378C100.221 117.378 99.5319 117.112 98.9327 116.581C98.3336 116.049 98.0341 115.183 98.0341 113.982C98.0341 113.273 98.1239 112.505 98.3037 111.679C98.5034 110.852 98.6931 110.054 98.8728 109.287C99.0526 108.519 99.1424 107.889 99.1424 107.397C99.1424 107.101 99.0825 106.875 98.9627 106.717C98.8628 106.54 98.6731 106.452 98.3935 106.452C97.9342 106.452 97.425 106.658 96.8658 107.072C96.3266 107.485 95.8573 108.036 95.4579 108.725C95.0784 109.415 94.8887 110.172 94.8887 110.999C94.8887 111.531 94.9486 112.043 95.0685 112.535C95.2082 113.027 95.2781 113.559 95.2781 114.13C95.2781 115.193 94.9985 116 94.4394 116.551C93.8802 117.102 93.2312 117.378 92.4923 117.378Z" fill="white"/>
<path id="Vector_4" d="M82.983 117.437C82.284 117.437 81.6749 117.211 81.1557 116.758C80.6365 116.305 80.3768 115.567 80.3768 114.543C80.3768 114.445 80.3768 114.346 80.3768 114.248C80.3768 114.15 80.3868 114.051 80.4068 113.953C79.8077 115.134 79.1287 116.01 78.3698 116.581C77.6309 117.132 76.882 117.408 76.1231 117.408C75.4242 117.408 74.7651 117.172 74.146 116.699C73.527 116.207 73.0277 115.488 72.6483 114.543C72.2688 113.598 72.0791 112.456 72.0791 111.118C72.0791 109.74 72.2688 108.509 72.6483 107.426C73.0477 106.343 73.5669 105.428 74.206 104.68C74.845 103.932 75.544 103.371 76.3029 102.997C77.0617 102.603 77.8006 102.406 78.5196 102.406C79.3184 102.406 80.0373 102.652 80.6764 103.144C81.3155 103.617 81.7548 104.375 81.9944 105.418C82.0544 105.083 82.0943 104.778 82.1143 104.503C82.1542 104.227 82.1742 104.04 82.1742 103.942C82.1942 103.41 82.4638 103.016 82.983 102.76C83.5222 102.504 84.1113 102.376 84.7504 102.376C85.3096 102.376 85.8388 102.485 86.338 102.701C86.8373 102.918 87.1768 103.282 87.3565 103.794L87.4164 103.971C87.1768 104.503 86.9371 105.143 86.6975 105.891C86.4578 106.639 86.2382 107.426 86.0385 108.253C85.8388 109.06 85.679 109.858 85.5592 110.645C85.4394 111.413 85.3794 112.092 85.3794 112.683C85.3794 113.333 85.4493 113.785 85.5891 114.041C85.7289 114.278 85.8987 114.396 86.0984 114.396C86.4379 114.396 86.7474 114.159 87.027 113.687L87.2667 113.805C87.2667 114.474 87.047 115.085 86.6076 115.636C86.1683 116.187 85.6191 116.63 84.9601 116.965C84.301 117.28 83.642 117.437 82.983 117.437ZM78.1002 113.687C78.6194 113.687 79.1886 113.234 79.8077 112.328C80.4467 111.403 80.9959 110.084 81.4552 108.371C81.4952 108.194 81.5351 108.027 81.5751 107.869C81.615 107.692 81.645 107.525 81.6649 107.367C81.3454 106.639 81.0059 106.127 80.6464 105.832C80.3069 105.517 79.9674 105.359 79.6279 105.359C79.1287 105.359 78.6594 105.625 78.22 106.156C77.8006 106.668 77.4512 107.318 77.1716 108.106C76.912 108.893 76.7822 109.681 76.7822 110.468C76.7822 111.551 76.902 112.358 77.1416 112.89C77.4012 113.421 77.7208 113.687 78.1002 113.687Z" fill="white"/>
<path id="Vector_5" d="M55.5813 123.285C55.0021 123.285 54.4529 123.176 53.9337 122.96C53.4145 122.763 53.055 122.458 52.8553 122.044C53.3346 120.036 53.724 118.254 54.0236 116.699C54.3431 115.144 54.5927 113.756 54.7725 112.535C54.9522 111.315 55.082 110.202 55.1619 109.198C55.2418 108.174 55.2917 107.19 55.3117 106.245C54.6327 106.284 53.9836 106.353 53.3645 106.452C52.7454 106.53 52.2062 106.649 51.7469 106.806L51.687 106.599C52.2662 106.028 52.8653 105.556 53.4844 105.182C54.1034 104.788 54.7225 104.473 55.3416 104.237C55.3416 102.465 55.6611 100.929 56.3002 99.63C56.9592 98.3306 57.8379 97.3266 58.9363 96.6178C60.0347 95.9091 61.2429 95.5547 62.5609 95.5547C64.0188 95.5547 65.4766 95.978 66.9345 96.8245C67.1342 96.7655 67.3339 96.7163 67.5336 96.6769C67.7333 96.6375 67.933 96.6178 68.1327 96.6178C68.8117 96.6178 69.4208 96.8836 69.96 97.4152C70.5192 97.927 70.7988 98.7933 70.7988 100.014C70.7988 100.664 70.7189 101.441 70.5591 102.347C70.3994 103.233 70.2096 104.188 69.99 105.211C69.7703 106.215 69.5406 107.21 69.301 108.194C69.0813 109.178 68.8916 110.084 68.7318 110.911C68.5721 111.738 68.4922 112.417 68.4922 112.949C68.4922 113.5 68.5721 113.884 68.7318 114.1C68.8916 114.297 69.0713 114.396 69.271 114.396C69.4907 114.396 69.7004 114.317 69.9001 114.159C70.0998 113.982 70.2296 113.825 70.2895 113.687L70.5292 113.746C70.5092 114.455 70.2995 115.085 69.9001 115.636C69.5207 116.187 69.0314 116.62 68.4323 116.935C67.8531 117.25 67.244 117.408 66.605 117.408C66.0658 117.408 65.5365 117.28 65.0173 117.024C64.5181 116.748 64.1087 116.315 63.7891 115.725C63.4696 115.134 63.3098 114.366 63.3098 113.421C63.3098 112.614 63.4197 111.669 63.6393 110.586C63.859 109.484 64.1087 108.342 64.3882 107.16C64.6878 105.979 64.9474 104.828 65.1671 103.705C65.3868 102.583 65.4966 101.579 65.4966 100.693C65.4966 100.083 65.4467 99.5513 65.3468 99.0984C64.9874 98.8228 64.5879 98.6063 64.1486 98.4488C63.7292 98.2913 63.2999 98.2125 62.8605 98.2125C62.3013 98.2125 61.7721 98.37 61.2728 98.685C60.7736 99 60.3642 99.5119 60.0447 100.221C59.7451 100.91 59.5953 101.835 59.5953 102.997V103.558C60.1745 103.538 60.7237 103.548 61.2429 103.587C61.7821 103.627 62.2814 103.666 62.7407 103.705C62.7806 103.843 62.8106 103.991 62.8305 104.148C62.8505 104.306 62.8605 104.463 62.8605 104.621C62.8605 104.916 62.8206 105.211 62.7407 105.507C62.6608 105.802 62.551 106.107 62.4112 106.422C62.0517 106.383 61.6423 106.343 61.183 106.304C60.7237 106.265 60.2344 106.235 59.7151 106.215V107.22C59.7151 108.184 59.6652 109.356 59.5654 110.734C59.4855 112.092 59.3257 113.746 59.0861 115.695C58.8464 117.624 58.477 119.938 57.9777 122.635C57.3586 123.068 56.5598 123.285 55.5813 123.285Z" fill="white"/>
<path id="Vector_6" d="M42.5688 117.496C41.071 117.496 39.8328 117.201 38.8543 116.611C37.8757 116.02 37.1468 115.242 36.6675 114.278C36.2082 113.293 35.9785 112.25 35.9785 111.147C35.9785 110.104 36.1682 109.06 36.5477 108.017C36.9471 106.973 37.5162 106.028 38.2552 105.182C39.014 104.316 39.9327 103.627 41.0111 103.115C42.0895 102.583 43.3277 102.317 44.7256 102.317C46.2234 102.317 47.4516 102.623 48.4101 103.233C49.3887 103.823 50.1076 104.611 50.567 105.595C51.0463 106.58 51.2859 107.633 51.2859 108.755C51.2859 109.779 51.0962 110.813 50.7167 111.856C50.3373 112.88 49.7681 113.825 49.0093 114.691C48.2704 115.538 47.3617 116.217 46.2833 116.729C45.2049 117.241 43.9667 117.496 42.5688 117.496ZM43.3776 114.986C43.9168 114.986 44.3661 114.711 44.7256 114.159C45.0851 113.608 45.3547 112.909 45.5344 112.063C45.7141 111.196 45.804 110.32 45.804 109.434C45.804 108.647 45.7241 107.909 45.5644 107.22C45.4246 106.511 45.2049 105.94 44.9053 105.507C44.6058 105.054 44.2163 104.828 43.737 104.828C43.2178 104.828 42.7685 105.103 42.389 105.654C42.0296 106.206 41.76 106.905 41.5802 107.751C41.4005 108.598 41.3106 109.474 41.3106 110.379C41.3106 111.167 41.3805 111.915 41.5203 112.624C41.6801 113.313 41.9097 113.884 42.2093 114.337C42.5089 114.77 42.8983 114.986 43.3776 114.986Z" fill="white"/>
<path id="Vector_7" d="M26.0608 117.467C24.8027 117.467 23.7143 117.221 22.7956 116.728C21.8969 116.217 21.1481 115.528 20.5489 114.661C19.9698 113.775 19.5404 112.781 19.2608 111.679C19.0012 110.556 18.8914 109.395 18.9313 108.194C19.0112 106.048 19.4106 104.197 20.1296 102.642C20.8485 101.087 21.7572 99.807 22.8555 98.803C23.9539 97.7989 25.1322 97.0606 26.3903 96.5881C27.6684 96.0959 28.8966 95.8499 30.0749 95.8499C31.0734 95.8499 31.9721 96.0172 32.7709 96.3519C33.5897 96.6669 34.2387 97.1394 34.718 97.7694C35.1973 98.3797 35.4369 99.1278 35.4369 100.014C35.4369 100.703 35.2272 101.372 34.8079 102.022C34.4085 102.652 33.7894 103.174 32.9506 103.587C32.1318 103.981 31.0734 104.178 29.7753 104.178C29.995 103.548 30.1547 102.996 30.2546 102.524C30.3544 102.051 30.4044 101.648 30.4044 101.313C30.4044 100.624 30.2446 100.161 29.9251 99.9252C29.6056 99.6692 29.2061 99.5413 28.7269 99.5413C28.1477 99.5413 27.5985 99.748 27.0793 100.161C26.5601 100.575 26.0907 101.136 25.6714 101.845C25.272 102.534 24.9524 103.302 24.7128 104.148C24.4731 104.995 24.3333 105.851 24.2934 106.717C24.2135 108.903 24.5331 110.556 25.252 111.679C25.9709 112.801 26.8996 113.362 28.0379 113.362C28.9166 113.362 29.8851 113.008 30.9436 112.299C32.022 111.59 33.0804 110.517 34.1189 109.08L34.5083 109.257C34.2487 111.029 33.6795 112.525 32.8008 113.746C31.9221 114.966 30.8837 115.892 29.6854 116.522C28.5072 117.152 27.299 117.467 26.0608 117.467Z" fill="white"/>
</g>
</g>
</g>
</g>
<defs>
<clipPath id="clip0_936_61948">
<rect width="150" height="88.5938" fill="white" transform="translate(0 1.96875)"/>
</clipPath>
</defs>
</svg>
